<?xml version="1.0" encoding="UTF-8"?>
<!DOCTYPE svg PUBLIC "-//W3C//DTD SVG 1.1//EN" "http://www.w3.org/Graphics/SVG/1.1/DTD/svg11.dtd">
<!-- Creator: CorelDRAW X7 -->
<svg xmlns="http://www.w3.org/2000/svg" xml:space="preserve" width="53.218mm" height="19.851mm" version="1.1" style="shape-rendering:geometricPrecision; text-rendering:geometricPrecision; image-rendering:optimizeQuality; fill-rule:evenodd; clip-rule:evenodd"
viewBox="0 0 5322 1985"
 xmlns:xlink="http://www.w3.org/1999/xlink">
 <defs>
  <style type="text/css">
   <![CDATA[
    .fil1 {fill:#F1984B;fill-rule:nonzero}
    .fil0 {fill:#00AAC8;fill-rule:nonzero}
   ]]>
  </style>
 </defs>
 <g id="Layer_x0020_1">
  <metadata id="CorelCorpID_0Corel-Layer"/>
  <path class="fil0" d="M2389 542l0 834 -275 0 0 -135c-57,97 -148,146 -267,148 -180,0 -297,-125 -297,-320l0 -527 274 0 0 449c0,94 53,151 134,151 98,-2 156,-79 156,-188l0 -412 275 0z"/>
  <path class="fil0" d="M3295 833l0 543 -270 0 0 -94c-54,70 -139,107 -252,107 -179,0 -285,-108 -285,-261 0,-159 113,-250 319,-253l218 0 0 -9c0,-79 -54,-125 -159,-125 -70,0 -161,23 -250,66l-76 -185c132,-59 252,-91 389,-91 230,0 364,111 366,302zm-270 261l0 0 0 -73 -164 0c-77,0 -115,28 -115,87 0,57 41,94 112,94 82,0 150,-45 167,-108z"/>
  <polygon class="fil0" points="3716,231 3716,1376 3442,1376 3442,231 "/>
  <polygon class="fil0" points="4170,231 4170,1376 3895,1376 3895,231 "/>
  <path class="fil0" d="M5321 1333c-60,36 -143,56 -225,56 -162,1 -279,-94 -279,-267l0 -318 -116 0 0 -182 116 0 0 -272 273 0 0 272 216 0 0 182 -216 0 0 275c0,61 28,89 75,88 28,0 64,-11 104,-28l52 194z"/>
  <path class="fil0" d="M1238 213c-142,-141 -327,-212 -513,-212 -186,0 -371,71 -513,212 -283,284 -283,743 0,1026 142,142 327,213 513,213 97,0 194,-20 285,-59l-230 -231c-18,3 -37,4 -55,4 -118,0 -228,-46 -311,-129 -83,-83 -129,-193 -129,-311 0,-117 46,-227 129,-311 83,-82 193,-128 311,-128 117,0 228,46 311,128 99,100 141,236 125,366l231 231c113,-265 62,-583 -154,-799z"/>
  <path class="fil1" d="M1241 1386c-36,0 -73,-14 -101,-42l-255 -255c-55,-56 -55,-146 0,-202 56,-56 147,-56 203,0l254 255c56,56 56,146 0,202 -27,28 -64,42 -101,42z"/>
  <polygon class="fil0" points="4605,619 4605,1376 4345,1376 4345,619 "/>
  <path class="fil1" d="M4618 382c0,86 -60,149 -143,149 -83,0 -143,-63 -143,-149 0,-88 60,-150 143,-150 83,0 143,62 143,150z"/>
  <path class="fil1" d="M1635 1857c-22,-9 -38,-22 -50,-37 -11,-16 -17,-33 -18,-51 0,-2 1,-5 3,-7 2,-2 5,-4 8,-4l27 0c7,0 11,4 14,11 3,16 12,29 28,40 15,11 38,17 66,17 31,0 55,-6 70,-17 15,-11 23,-26 23,-45 0,-12 -4,-23 -11,-31 -8,-8 -19,-15 -34,-21 -14,-6 -37,-13 -66,-22 -28,-8 -51,-17 -67,-26 -17,-9 -29,-20 -38,-33 -8,-14 -12,-30 -12,-51 0,-20 5,-37 16,-53 10,-15 26,-27 46,-36 20,-9 43,-14 71,-14 28,0 53,5 73,15 20,10 35,23 46,38 11,15 16,30 17,46 0,3 -1,6 -3,8 -2,2 -5,3 -8,3l-28 0c-3,0 -6,-1 -8,-3 -3,-1 -4,-4 -6,-8 -2,-15 -10,-28 -26,-39 -15,-10 -34,-15 -57,-15 -25,0 -45,5 -59,15 -15,9 -22,24 -22,43 0,12 3,23 10,31 7,8 17,15 31,21 14,6 35,13 62,21 31,9 55,18 73,27 17,8 31,19 39,32 9,13 14,30 14,50 0,35 -14,61 -40,81 -26,19 -61,28 -106,28 -29,0 -55,-5 -78,-14z"/>
  <path class="fil1" d="M1946 1837c-21,-22 -33,-52 -34,-90l-1 -24 1 -23c1,-38 13,-68 35,-90 22,-23 53,-34 92,-34 40,0 70,11 92,34 22,22 34,52 36,90 0,8 1,16 1,23 0,8 -1,16 -1,24 -2,38 -13,68 -35,90 -22,23 -53,34 -93,34 -40,0 -71,-11 -93,-34zm149 -29l0 0c13,-15 21,-36 22,-64 0,-3 0,-10 0,-21 0,-10 0,-17 0,-20 -1,-28 -9,-49 -22,-64 -14,-15 -33,-22 -56,-22 -23,0 -42,7 -55,22 -14,15 -22,36 -23,64l0 20 0 21c1,28 9,49 23,64 13,15 32,22 55,22 23,0 42,-7 56,-22z"/>
  <path class="fil1" d="M2241 1862c-3,-2 -4,-5 -4,-9l0 -363c0,-4 1,-7 4,-10 2,-2 5,-3 9,-3l24 0c4,0 7,1 9,4 2,2 3,5 3,9l0 363c0,4 -1,7 -3,9 -2,3 -5,4 -9,4l-24 0c-4,0 -7,-1 -9,-4z"/>
  <path class="fil1" d="M2394 1838c-19,-23 -28,-53 -28,-90l0 -154c0,-4 1,-7 3,-9 3,-3 6,-4 9,-4l26 0c3,0 6,1 9,4 2,2 3,5 3,9l0 151c0,56 24,84 72,84 24,0 42,-8 56,-23 14,-14 20,-35 20,-61l0 -151c0,-4 2,-7 4,-9 2,-3 5,-4 9,-4l25 0c4,0 7,1 9,4 3,2 4,5 4,9l0 259c0,4 -1,7 -4,9 -2,3 -5,4 -9,4l-23 0c-4,0 -7,-1 -9,-4 -3,-2 -4,-5 -4,-9l0 -24c-10,14 -23,24 -37,32 -14,7 -32,10 -54,10 -35,0 -62,-11 -81,-33z"/>
  <path class="fil1" d="M2778 1978c-10,-5 -15,-10 -15,-15 0,-2 1,-4 2,-5l9 -7c1,-2 3,-3 4,-3 2,0 4,1 8,4 4,2 7,4 11,5 3,2 7,2 13,2 6,0 11,-2 16,-5 4,-4 6,-9 6,-15 0,-6 -2,-11 -6,-14 -4,-4 -10,-6 -16,-6 -5,0 -9,1 -15,3 -5,1 -8,2 -10,2 -3,0 -6,-1 -8,-3l-9 -10c-1,-1 -2,-3 -2,-5 0,-2 2,-5 4,-11l12 -27c-31,-5 -54,-18 -71,-39 -17,-22 -25,-49 -26,-84l-1 -22 1 -21c1,-40 12,-71 34,-93 22,-22 53,-33 92,-33 26,0 48,4 66,14 18,9 32,21 41,34 9,14 13,28 14,42 1,3 -1,6 -3,9 -3,2 -6,4 -9,4l-24 0c-4,0 -7,-1 -9,-3 -1,-2 -3,-5 -5,-9 -7,-18 -16,-30 -27,-38 -12,-7 -26,-11 -44,-11 -23,0 -41,7 -54,21 -14,14 -21,36 -22,65l-1 19 1 20c1,29 8,51 22,65 13,14 31,21 54,21 18,0 33,-4 44,-11 11,-8 20,-20 27,-38 2,-5 4,-8 5,-9 2,-2 5,-3 9,-3l24 0c3,0 6,2 9,4 2,3 4,6 3,9 -1,13 -5,27 -14,41 -9,14 -22,26 -40,35 -18,9 -40,14 -66,14l-13 25c5,-3 12,-4 20,-4 13,0 23,4 31,13 8,8 12,19 12,33 0,14 -5,25 -14,34 -8,10 -21,14 -37,14 -13,0 -24,-2 -33,-8z"/>
  <path class="fil1" d="M3021 1837c-22,-22 -34,-52 -35,-90l-1 -24 1 -23c1,-38 13,-68 35,-90 22,-23 53,-34 92,-34 40,0 71,11 93,34 22,22 33,52 35,90 1,8 1,16 1,23 0,8 0,16 -1,24 -2,38 -13,68 -35,90 -22,23 -52,34 -93,34 -40,0 -71,-11 -92,-34zm148 -29l0 0c14,-15 21,-36 22,-64 0,-3 1,-10 1,-21 0,-10 -1,-17 -1,-20 -1,-28 -8,-49 -22,-64 -14,-15 -32,-22 -56,-22 -23,0 -41,7 -55,22 -14,15 -21,36 -22,64l-1 20 1 21c1,28 8,49 22,64 14,15 32,22 55,22 24,0 42,-7 56,-22zm-44 -268l0 0c-5,-2 -10,-4 -16,-8 -3,-2 -7,-4 -10,-5 -3,-2 -6,-3 -10,-3 -3,0 -5,1 -7,2 -2,2 -3,4 -5,6 -3,6 -7,8 -11,8l-17 0c-2,0 -4,-1 -6,-3 -2,-1 -2,-3 -2,-6 0,-12 4,-23 12,-32 8,-10 19,-15 32,-15 7,0 13,1 17,2 4,2 10,5 16,9 0,0 3,1 7,4 4,2 8,3 12,3 4,0 6,0 8,-2 1,-1 3,-3 5,-6 2,-3 4,-5 5,-6 1,-2 3,-2 6,-2l16 0c3,0 6,1 7,3 2,2 3,4 3,6 0,12 -4,23 -13,33 -8,10 -19,15 -33,15 -6,0 -12,-1 -16,-3z"/>
  <path class="fil1" d="M3334 1836c-22,-23 -34,-54 -36,-94l-1 -19 1 -18c2,-40 14,-71 36,-94 23,-24 52,-35 90,-35 40,0 71,12 93,38 22,26 33,60 33,104l0 10c0,3 -1,7 -3,9 -3,2 -6,3 -9,3l-190 0 0 5c1,24 8,44 21,61 14,17 32,25 54,25 17,0 31,-3 42,-10 11,-7 19,-14 24,-21 4,-4 6,-7 8,-8 2,-1 5,-1 9,-1l24 0c4,0 6,1 9,3 2,1 3,4 3,7 0,8 -4,17 -14,29 -10,11 -24,21 -42,29 -18,8 -39,12 -62,12 -38,0 -67,-11 -90,-35zm166 -133l0 0 0 -1c0,-26 -7,-47 -21,-63 -13,-16 -32,-24 -55,-24 -24,0 -43,8 -56,24 -14,16 -20,37 -20,63l0 1 152 0z"/>
  <path class="fil1" d="M3651 1859c-18,-8 -31,-18 -39,-28 -8,-11 -13,-20 -13,-27 0,-3 2,-6 4,-8 3,-2 5,-3 8,-3l23 0c3,0 4,0 6,1 1,1 3,2 5,5 8,10 18,18 28,24 10,6 24,9 42,9 20,0 35,-4 47,-11 12,-7 18,-18 18,-32 0,-9 -3,-16 -8,-22 -5,-5 -13,-10 -25,-15 -12,-4 -30,-9 -53,-14 -32,-7 -54,-17 -67,-30 -13,-13 -20,-30 -20,-51 0,-13 4,-26 12,-39 8,-12 20,-23 36,-31 16,-7 35,-11 57,-11 23,0 42,4 58,11 17,8 29,17 37,27 8,10 12,19 12,26 0,3 -1,6 -3,8 -3,2 -5,3 -9,3l-20 0c-6,0 -9,-2 -11,-6 -7,-7 -12,-12 -16,-16 -4,-4 -10,-7 -18,-10 -8,-3 -18,-4 -30,-4 -18,0 -32,4 -42,11 -9,8 -14,18 -14,30 0,8 2,14 6,20 4,5 12,10 23,14 12,5 28,10 51,14 34,8 59,18 73,32 15,13 22,30 22,52 0,15 -5,29 -14,42 -9,13 -22,23 -40,30 -17,8 -38,11 -63,11 -25,0 -46,-4 -63,-12z"/>
  <path class="fil1" d="M4053 1836c-22,-23 -34,-54 -37,-94l0 -19 0 -18c3,-40 15,-71 37,-94 22,-24 52,-35 89,-35 40,0 71,12 94,38 22,26 33,60 33,104l0 10c0,3 -2,7 -4,9 -2,2 -5,3 -9,3l-190 0 0 5c1,24 9,44 22,61 14,17 31,25 54,25 17,0 31,-3 42,-10 10,-7 18,-14 24,-21 3,-4 6,-7 8,-8 1,-1 4,-1 9,-1l24 0c3,0 6,1 8,3 3,1 4,4 4,7 0,8 -5,17 -15,29 -10,11 -24,21 -42,29 -18,8 -38,12 -62,12 -37,0 -67,-11 -89,-35zm166 -133l0 0 0 -1c0,-26 -7,-47 -21,-63 -14,-16 -32,-24 -56,-24 -23,0 -42,8 -56,24 -13,16 -20,37 -20,63l0 1 153 0z"/>
  <path class="fil1" d="M4339 1862c-2,-2 -4,-5 -4,-9l0 -259c0,-4 2,-7 4,-9 2,-3 5,-4 9,-4l23 0c4,0 7,1 9,4 2,2 3,5 3,9l0 18c20,-24 46,-36 80,-36 40,0 69,16 85,50 9,-15 22,-27 38,-37 16,-9 34,-13 54,-13 30,0 55,10 74,30 19,21 28,50 28,89l0 158c0,4 -1,7 -4,9 -2,3 -5,4 -9,4l-23 0c-4,0 -7,-1 -9,-4 -3,-2 -4,-5 -4,-9l0 -153c0,-29 -6,-50 -18,-63 -12,-12 -28,-19 -47,-19 -18,0 -33,7 -45,20 -13,13 -19,33 -19,62l0 153c0,4 -2,7 -4,9 -2,3 -5,4 -9,4l-24 0c-4,0 -7,-1 -9,-4 -2,-2 -4,-5 -4,-9l0 -153c0,-29 -6,-50 -19,-62 -12,-13 -28,-20 -46,-20 -18,0 -33,7 -45,20 -13,12 -19,33 -19,61l0 154c0,4 -2,7 -4,9 -2,3 -5,4 -9,4l-24 0c-4,0 -7,-1 -9,-4z"/>
  <path class="fil1" d="M5037 1862c-3,-2 -4,-5 -4,-9l0 -323 -105 0c-4,0 -7,-1 -9,-4 -3,-2 -4,-5 -4,-9l0 -21c0,-4 1,-7 4,-10 2,-2 5,-3 9,-3l262 0c4,0 7,1 10,3 2,3 3,6 3,10l0 21c0,4 -1,7 -4,9 -2,3 -5,4 -9,4l-105 0 0 323c0,4 -1,7 -4,9 -2,3 -5,4 -9,4l-26 0c-4,0 -7,-1 -9,-4z"/>
  <path class="fil1" d="M5268 1862c-2,-2 -3,-5 -3,-9l0 -358c0,-3 1,-6 3,-9 3,-2 6,-3 9,-3l28 0c4,0 7,1 9,3 2,2 3,5 3,9l0 358c0,4 -1,7 -3,9 -3,3 -6,4 -9,4l-28 0c-3,0 -6,-1 -9,-4z"/>
 </g>
</svg>
